<?xml version="1.0" standalone="no"?>
<!DOCTYPE svg PUBLIC "-//W3C//DTD SVG 20010904//EN"
 "http://www.w3.org/TR/2001/REC-SVG-20010904/DTD/svg10.dtd">
<svg version="1.0" xmlns="http://www.w3.org/2000/svg"
 width="700.000000pt" height="700.000000pt" viewBox="0 0 700.000000 700.000000"
 preserveAspectRatio="xMidYMid meet">
<metadata>
Created by potrace 1.11, written by Peter Selinger 2001-2013
</metadata>
<g transform="translate(0.000000,700.000000) scale(0.100000,-0.100000)"
fill="#000000" stroke="none">
<path d="M3191 6989 c-1095 -103 -2057 -688 -2648 -1610 -103 -160 -252 -454
-308 -609 -55 -150 -90 -260 -120 -375 -41 -156 -60 -252 -80 -390 -2 -16 -10
-66 -16 -110 -6 -44 -13 -197 -14 -340 -3 -235 1 -320 19 -460 3 -25 9 -66 12
-92 11 -97 66 -345 104 -478 186 -636 553 -1208 1056 -1650 439 -386 990 -662
1565 -784 125 -27 140 -30 234 -42 44 -5 87 -12 95 -14 70 -18 493 -26 670
-12 557 44 1059 206 1549 500 111 67 381 258 436 310 7 6 62 57 122 112 513
474 873 1094 1032 1780 61 264 89 532 86 820 -3 225 -8 287 -41 502 -77 504
-271 998 -558 1417 -85 124 -84 122 -149 206 -173 221 -413 455 -652 635 -466
349 -977 562 -1585 659 -14 2 -52 8 -85 12 -33 3 -76 9 -95 11 -68 8 -546 10
-629 2z"/>
</g>
</svg>
